# xmcd
#
# Track frame offsets: 
#        150
#        12035
#        19953
#        33463
#        42623
#        54554
#        64676
#        78589
#        87841
#        98465
#        108196
#        118610
#        131900
#        147322
#        159315
#        173003
#        185300
#        197220
#        213516
#
# Disc length: 3298 seconds
#
# Revision: 0
# Processed by: cddbd v1.5.2PL0 Copyright (c) Steve Scherf et al.
# Submitted via: ExactAudioCopy v0.95b4
#
DISCID=010ce013
DTITLE=Va  - The British Beat Best Of The '60s - Disc 1
DYEAR=1900
DGENRE=
TTITLE0=The Troggs - Wild Thing
TTITLE1=The Swinging Blue Jeans - Hippy Hippy Shake
TTITLE2=Los Bravos - Black Is Black
TTITLE3=Tom Jones - It's Not Unusual
TTITLE4=Dusty Springfield - I Only Want To Be With You
TTITLE5=The Silkie - You've Got to Hide Your Love Away
TTITLE6=The Walker Brothers - The Sun Ain't Gonna Shine (Anymore)
TTITLE7=The Mindbenders - A Groovy Kind Of Love
TTITLE8=Billy J. Kramer and The Dakotas - Bad To Me
TTITLE9=Wayne Fontana and The Mindbenders - Game Of Love
TTITLE10=Unit 4+2 - Concrete And Clay
TTITLE11=Dusty Springfield - Wishin' And Hopin'
TTITLE12=The Fortunes - You've Got Your Troubles
TTITLE13=Chad and Jeremy - A Summer Song
TTITLE14=The Troggs - Love Is All Around
TTITLE15=The Seekers - I'll Never Find Another You
TTITLE16=Gerry and The Pacemakers - Don't Let The Sun Catch You Crying
TTITLE17=Dusty Springfield - The Look Of Love
TTITLE18=The Moody Blues - Nights In White Satin
EXTD=
EXTT0=
EXTT1=
EXTT2=
EXTT3=
EXTT4=
EXTT5=
EXTT6=
EXTT7=
EXTT8=
EXTT9=
EXTT10=
EXTT11=
EXTT12=
EXTT13=
EXTT14=
EXTT15=
EXTT16=
EXTT17=
EXTT18=
PLAYORDER=
